<svg id="Layer_1" xmlns="http://www.w3.org/2000/svg" viewBox="-552.5 334.5 100 100">
  <g id="Symbols">
    <g id="Header">
      <g id="Top">
        <g id="Language">
          <path id="_xF107_" style="fill:#241E03;" d="M-452.5 363.7c0-.8-.4-1.7-1-2.3l-5-5c-.6-.6-1.5-1-2.3-1s-1.7.4-2.3 1l-39.4 39.4-39.4-39.4c-.6-.6-1.5-1-2.3-1-.9 0-1.7.4-2.3 1l-5 5c-.6.6-1 1.5-1 2.3 0 .8.4 1.7 1 2.3l46.7 46.7c.6.6 1.5 1 2.3 1s1.7-.4 2.3-1l46.7-46.7c.6-.6 1-1.5 1-2.3z"/>
        </g>
      </g>
    </g>
  </g>
</svg>