<svg id="Layer_1" xmlns="http://www.w3.org/2000/svg" viewBox="0 0 100 100">
  <path id="SVGID_6_" style="fill-rule:evenodd;clip-rule:evenodd;fill:#FFFFFF;" d="M100 51.2c0-27.6-22.4-50-50-50S0 23.6 0 51.2C0 73.3 14.3 92 34.2 98.7c2.5.5 3.5-1.1 3.5-2.4 0-1.2-.1-5.1-.1-9.3 0 0-13.9 3-16.9-5.9 0 0-2.3-5.8-5.5-7.3 0 0-4.6-3.1.3-3.1 0 0 4.9.4 7.7 5.1 4.4 7.7 11.7 5.5 14.5 4.2.5-3.3 1.8-5.4 3.2-6.7-11.1-1.2-22.8-5.5-22.8-24.7 0-5.5 2-10 5.1-13.4-.5-1.3-2.2-6.4.5-13.3 4.2-1.3 13.8 5.1 13.8 5.1 4-1.1 8.3-1.7 12.5-1.7 4.2 0 8.5.6 12.5 1.7 0 0 9.6-6.4 13.7-5.1 2.7 6.9 1 12 .5 13.3 3.2 3.5 5.1 7.9 5.1 13.4 0 19.2-11.7 23.4-22.9 24.7 1.8 1.6 3.4 4.6 3.4 9.2v13.7c0 1.3.8 2.9 3.4 2.4C85.7 92 100 73.3 100 51.2z"/>
</svg>