<svg id="Layer_1" xmlns="http://www.w3.org/2000/svg" viewBox="0 0 70 100">
  <style>
    .st0{fill:#f9d732;} .st1{fill:#29293F;}
  </style>
  <path class="st0" d="M64.9 98.5H5.1c-1.8 0-3.3-1.5-3.3-3.3V4.9c0-1.8 1.5-3.3 3.3-3.3H65c1.8 0 3.3 1.5 3.3 3.3v90.3c0 1.8-1.5 3.3-3.4 3.3z"/>
  <path class="st1" d="M63.2 94.7H59c-.8 0-1.5-.7-1.5-1.5s.7-1.5 1.5-1.5h4.2c.8 0 1.5.7 1.5 1.5 0 .9-.7 1.5-1.5 1.5z"/>
  <path class="st1" d="M64.9 0H5.1C2.4 0 .2 2.2.2 4.9v90.2c0 2.7 2.2 4.9 4.9 4.9h59.8c2.7 0 4.9-2.2 4.9-4.9V4.9c0-2.7-2.2-4.9-4.9-4.9zM5.1 3h59.8c1 0 1.9.8 1.9 1.9v7H3.2v-7c0-1 .9-1.9 1.9-1.9zm61.7 10.9v73.8H3.2V13.9h63.6zM64.9 97H5.1c-1 0-1.9-.8-1.9-1.9v-5.3h63.5v5.3c.1 1-.8 1.9-1.8 1.9z"/>
  <circle class="st1" cx="7.6" cy="7.2" r="2.2"/>
  <circle class="st1" cx="14.8" cy="7.2" r="2.2"/>
  <circle class="st1" cx="22" cy="7.2" r="2.2"/>
  <path class="st1" d="M46 53.9c1.3 2.1 3 3.7 5.9 3.7 2.5 0 4.1-1.2 4.1-3 0-2.1-1.6-2.8-4.4-4l-1.4-.6c-4.4-1.9-7.2-4.2-7.2-9.1 0-4.5 3.4-8 8.8-8 3.8 0 6.6 1.3 8.6 4.8l-4.7 3c-1-1.9-2.1-2.6-3.9-2.6-1.8 0-2.9 1.1-2.9 2.6 0 1.8 1.1 2.5 3.7 3.7l1.5.6c5.1 2.2 8 4.4 8 9.5 0 5.4-4.3 8.4-10 8.4-5.6 0-9.2-2.7-11-6.2l4.9-2.8zm-21.3.6c.9 1.7 1.8 3.1 3.9 3.1 2 0 3.2-.8 3.2-3.8V33.3h6v20.6c0 6.2-3.7 9.1-9 9.1-4.8 0-7.6-2.5-9-5.5l4.9-3z"/>
  <g>
    <path class="st1" d="M60 83.5H22.3c-1.4 0-2.5-1.1-2.5-2.5V69.5c0-1.4 1.1-2.5 2.5-2.5H60c1.4 0 2.5 1.1 2.5 2.5V81c0 1.4-1.1 2.5-2.5 2.5z"/>
  </g>
  <g>
    <path class="st0" d="M29.3 72.4v7.4h-2.1v-7.4h-2.6v-1.8h7.3v1.8h-2.6zM34.4 70.6h2.1v9.2h-2.1v-9.2zM46.1 71.5c.6.5 1 1.4 1 2.5s-.3 2-1 2.5-1.7.8-3 .8h-1.2v2.6h-2.1v-9.2H43c1.5-.1 2.5.2 3.1.8zm-1.5 3.6c.2-.3.4-.7.4-1.2s-.2-.9-.5-1.1c-.3-.2-.8-.3-1.5-.3h-1.2v3.1h1.4c.7-.1 1.2-.3 1.4-.5zM51.9 72.5c-.2.2-.3.4-.3.6 0 .3.1.5.4.6.2.2.8.3 1.7.6.9.2 1.5.5 2 1 .5.4.7 1.1.7 1.9 0 .8-.3 1.5-.9 2-.6.5-1.4.8-2.4.8-1.5 0-2.8-.5-3.9-1.6l1.2-1.5c1 .9 1.9 1.3 2.7 1.3.4 0 .7-.1.9-.2.2-.2.3-.4.3-.7 0-.3-.1-.5-.3-.7-.2-.2-.7-.3-1.4-.5-1.1-.3-1.9-.6-2.3-1-.5-.4-.7-1-.7-1.9 0-.9.3-1.5.9-2 .6-.5 1.4-.7 2.3-.7.6 0 1.2.1 1.8.3.6.2 1.1.5 1.6.9l-1 1.5c-.8-.6-1.6-.9-2.5-.9-.3-.1-.6 0-.8.2z"/>
  </g>
</svg>